<svg
  width="25"
  height="26"
  viewBox="0 0 25 26"
  fill="none"
  xmlns="http://www.w3.org/2000/svg"
>
  <g clip-path="url(#clipCircle)">
    <!-- Círculo exterior -->
    <path
      d="M12.5 23.1563
         C10.4913 23.1563 8.52768 22.5606 6.85749 21.4446
         C5.18731 20.3286 3.88556 18.7424 3.11685 16.8866
         C2.34815 15.0308 2.14702 12.9887 2.5389 11.0186
         C2.93079 9.0485 3.89807 7.23883 5.31845 5.81845
         C6.73883 4.39807 8.5485 3.43079 10.5186 3.0389
         C12.4887 2.64702 14.5308 2.84815 16.3866 3.61685
         C18.2424 4.38556 19.8286 5.68731 20.9446 7.35749
         C22.0606 9.02768 22.6563 10.9913 22.6563 13
         C22.6563 15.6936 21.5862 18.2769 19.6816 20.1816
         C17.7769 22.0862 15.1936 23.1563 12.5 23.1563Z
         M12.5 4.40625
         C10.8003 4.40625 9.13881 4.91027 7.72557 5.85456
         C6.31234 6.79886 5.21086 8.14102 4.56041 9.71132
         C3.90997 11.2816 3.73979 13.0095 4.07138 14.6766
         C4.40297 16.3436 5.22145 17.8748 6.42331 19.0767
         C7.62516 20.2786 9.15642 21.097 10.8234 21.4286
         C12.4905 21.7602 14.2184 21.59 15.7887 20.9396
         C17.359 20.2892 18.7012 19.1877 19.6454 17.7744
         C20.5897 16.3612 21.0938 14.6997 21.0938 13
         C21.0938 10.7208 20.1883 8.53495 18.5767 6.92331
         C16.9651 5.31167 14.7792 4.40625 12.5 4.40625Z"
      fill="#B1B1B1"
    />
    
    <!-- Manecilla o puntero (forma de reloj o cronómetro) -->
    <path
      d="M16.7969 18.0781
         C16.6941 18.0787 16.5921 18.059 16.497 18.0201
         C16.4018 17.9813 16.3152 17.924 16.2422 17.8516
         L11.9453 13.5547
         C11.8729 13.4817 11.8156 13.3951 11.7768 13.2999
         C11.7379 13.2047 11.7182 13.1028 11.7188 13
         V6.75
         C11.7188 6.5428 11.8011 6.34409 11.9476 6.19757
         C12.0941 6.05106 12.2928 5.96875 12.5 5.96875
         C12.7072 5.96875 12.9059 6.05106 13.0524 6.19757
         C13.199 6.34409 13.2813 6.5428 13.2813 6.75
         V12.6797
         L17.3516 16.7422
         C17.4248 16.8148 17.4829 16.9012 17.5226 16.9964
         C17.5622 17.0916 17.5827 17.1937 17.5827 17.2969
         C17.5827 17.4 17.5622 17.5021 17.5226 17.5973
         C17.4829 17.6925 17.4248 17.7789 17.3516 17.8516
         C17.2786 17.924 17.192 17.9813 17.0968 18.0201
         C17.0016 18.059 16.8997 18.0787 16.7969 18.0781Z"
      fill="#B1B1B1"
    />
  </g>

  <defs>
    <clipPath id="clipCircle">
      <rect width="25" height="25" fill="white" transform="translate(0 0.5)" />
    </clipPath>
  </defs>
</svg>
